PathFileType	4	(X/Y/Z)	C:/Users/beibeiliu/ov580/test_trc/capture2\sequence.30_training_dense_left.trc
DataRate	CameraRate	NumFrames	NumMarkers	Units	OrigDataRate	OrigDataStartFrame	OrigNumFrames
120	120	24	19	mm	120	101	400
Frame#	Time	ThumbCMC			ThumbMCP			ThumbIP			ThumbTip			IndexMCP			IndexPIP			IndexTip			MiddleMCP			MiddlePIP			MiddleTip			RingMCP			RingPIP			RingTip			PinkyMCP			PinkyPIP			PinkyTip			BackHand1			BackHand2			BackHand3	
		X0	Y0	Z0	X1	Y1	Z1	X2	Y2	Z2	X3	Y3	Z3	X4	Y4	Z4	X5	Y5	Z5	X6	Y6	Z6	X7	Y7	Z7	X8	Y8	Z8	X9	Y9	Z9	X10	Y10	Z10	X11	Y11	Z11	X12	Y12	Z12	X13	Y13	Z13	X14	Y14	Z14	X15	Y15	Z15	X16	Y16	Z16	X17	Y17	Z17	X18	Y18	Z18	
100	0.833333	-118.03	44.6337	22.657	-102.942	29.1976	-5.38185	-99.0826	26.26	-30.6833	-104.357	27.3776	-56.3741	-112.03	70.412	-49.2701	-114.427	66.0104	-76.5245	-122.856	48.36	-102.947	-126.165	84.015	-59.4808	-122.044	79.9359	-86.5028	-120.879	56.4929	-113.388	-148.678	79.6437	-57.3563	-147.841	69.8876	-85.618	-148.746	39.627	-102.376	-168.213	74.2076	-51.6073	-161.673	58.242	-74.8517	-159.087	26.4256	-72.9048	-156.846	85.5622	-8.6501	-160.633	83.4536	23.6436	-126.901	77.3603	12.2117	
101	0.841667	-114.789	45.623	18.5218	-107.355	30.061	-3.10114	-102.34	27.3541	-30.2588	-105.574	27.3434	-54.8561	-111.507	69.7228	-49.7562	-112.533	64.2686	-75.9163	-123.387	46.3133	-103.082	-125.931	81.3519	-54.9892	-122.549	77.1261	-89.0812	-124.366	57.5422	-112.328	-147.445	79.415	-58.3651	-149.487	67.4277	-88.9266	-148.238	41.1759	-102.69	-167.191	73.5692	-51.1072	-160.739	59.1455	-73.9844	-159.213	24.9501	-75.6509	-156.112	85.64	-7.66216	-162.597	83.6471	18.4452	-125.464	79.7136	9.35408	
102	0.85	-114.062	45.735	19.0984	-103.857	30.0357	-5.74851	-100.836	25.7092	-30.192	-105.347	25.556	-55.558	-109.712	69.9837	-52.7094	-111.134	62.9617	-78.2661	-120.568	48.4018	-100.067	-126.884	82.1288	-58.088	-117.545	76.9632	-86.3519	-120.306	57.1926	-112.752	-150.968	78.1004	-58.2942	-146.968	67.6447	-87.9388	-148.227	42.0476	-104.982	-165.719	70.768	-49.0526	-158.771	56.556	-75.3519	-158.644	25.3547	-80.817	-158.28	83.992	-9.4339	-160.059	82.6455	18.638	-129.494	80.0649	8.7765	
103	0.858333	-118.419	45.7724	18.8992	-106.32	30.1867	-2.97467	-98.2032	23.7872	-29.3792	-102.549	24.4754	-55.6489	-112.108	70.8451	-50.6808	-111.399	63.9305	-78.528	-115.581	48.8057	-102.574	-125.719	81.1463	-56.9878	-119.3	76.8411	-87.784	-116.845	60.9216	-110.801	-148.052	77.9637	-58.1381	-146.809	70.0897	-86.4277	-146.332	44.3623	-107.228	-165.481	71.3445	-51.1338	-158.484	57.8387	-76.1955	-154.814	28.758	-87.986	-158.778	82.0657	-9.69472	-162.33	82.0123	18.3735	-131.401	79.0396	9.42948	
104	0.866667	-118.731	45.6052	21.8527	-106.846	30.6902	-4.31963	-97.457	23.7055	-29.5856	-100.051	24.7747	-57.246	-109.94	71.3633	-49.8167	-109.906	64.6061	-78.609	-113.978	52.4147	-104.086	-127.409	81.5721	-56.5162	-118.589	79.5365	-84.5804	-114	63.1549	-114.399	-150.741	79.2674	-60.8616	-148.697	73.3385	-84.6234	-145.832	51.3031	-109.229	-167.371	69.7658	-48.0374	-160.591	61.0883	-75.5176	-158.576	38.7328	-95.4035	-160.82	84.0414	-9.18311	-167.706	83.5332	22.9519	-130.077	77.1503	13.2114	
105	0.875	-118.36	47.7774	18.4339	-105.988	30.0801	-2.49885	-99.0918	26.6747	-29.3894	-97.0075	23.4746	-49.6645	-106.803	71.8207	-48.5192	-107.361	68.2681	-74.0825	-105.204	58.3234	-103.609	-123.661	82.3399	-54.6232	-118.948	82.4277	-81.9536	-112.894	72.6627	-112.63	-151.493	78.3931	-55.1628	-148.267	74.812	-87.1289	-147.497	59.0669	-114.063	-171.008	69.5914	-52.0082	-166.208	63.2986	-76.3652	-159.271	49.1823	-97.4451	-157.636	82.3662	-7.14078	-165.173	82.0505	22.8989	-133.839	78.4756	8.52165	
106	0.883333	-114.334	46.3737	20.613	-102.268	28.1553	0.0356433	-94.6856	24.7542	-28.3899	-93.484	22.9001	-54.5008	-104.736	73.9482	-50.74	-99.6829	71.0405	-74.6065	-98.58	64.5522	-100.411	-126.213	85.2428	-58.5523	-120.937	84.3202	-82.8472	-117.846	79.6582	-114.895	-150.967	79.4449	-56.2862	-152.267	77.8785	-84.325	-150.619	69.9297	-111.338	-169.28	69.3095	-55.8023	-173.198	64.2009	-77.3772	-171.115	56.6729	-104.989	-161.09	81.9374	-10.3446	-167.388	80.6431	22.6214	-130.98	78.2825	12.3923	
107	0.891667	-117.355	47.5381	20.4958	-102.292	31.4003	-4.6845	-93.7807	25.3554	-25.8611	-87.674	21.954	-50.9444	-103.021	75.7937	-46.199	-97.1236	74.1821	-72.3477	-94.5895	70.4112	-99.0511	-127.326	85.6492	-59.5887	-120.649	86.2937	-85.352	-118.845	84.6209	-111.066	-151.798	80.0212	-59.6475	-153.089	80.5791	-83.9105	-145.741	76.9436	-111.395	-173.281	70.14	-55.4049	-175.158	65.1604	-74.8589	-178.388	66.4267	-99.9974	-162.877	83.3651	-10.6664	-168.105	80.6364	21.1275	-132.004	81.8818	10.4903	
108	0.9	-116.563	48.9707	20.2338	-104.263	32.983	-3.44915	-90.5864	25.7826	-25.2803	-85.307	21.1506	-45.9563	-102.697	77.511	-46.7925	-95.4851	76.9184	-71.5151	-87.3805	75.1992	-98.2367	-125.304	86.8785	-59.625	-121.16	87.6548	-86.8698	-116.045	87.5907	-113.663	-151.601	81.4069	-63.2187	-152.028	81.8963	-83.9184	-146.491	80.4353	-111.791	-175.344	70.3728	-55.7958	-179.79	68.8634	-76.9782	-181.602	75.95	-94.378	-160.308	84.2023	-10.3325	-166.871	82.7104	18.5444	-133.749	80.3357	8.14999	
109	0.908333	-115.824	50.3849	16.9654	-98.7088	32.7154	-1.29202	-90.0893	26.7618	-24.4552	-81.4959	23.3172	-48.177	-104.706	79.471	-49.4542	-96.3444	79.5956	-68.9736	-89.6969	81.1719	-93.1545	-127.793	86.0733	-56.016	-121.965	89.3674	-85.0779	-121.169	89.285	-110.991	-150.755	82.7756	-60.8359	-149.8	83.056	-86.6128	-149.274	83.8808	-108.82	-176.987	74.4961	-55.3965	-176.622	74.465	-75.5071	-186.115	84.1765	-92.7988	-162.092	84.1264	-7.26648	-166.467	83.8155	21.6295	-132.468	82.1003	12.073	
110	0.916667	-114.149	49.0574	21.7241	-96.8902	33.4818	-2.92816	-87.6331	28.7083	-25.1942	-81.8605	26.7225	-47.1055	-104.602	81.1334	-47.0021	-98.1088	83.1353	-72.5234	-91.5979	86.9251	-92.3312	-126.456	87.7414	-58.6619	-124.465	89.9435	-85.5711	-119.101	90.4076	-115.864	-149.304	84.3351	-59.1677	-150.101	84.9858	-83.3721	-149.979	86.2248	-109.66	-173.782	77.3505	-52.425	-177.244	78.3852	-72.6682	-183.069	87.449	-91.6047	-162.16	85.0028	-6.73909	-167.483	83.2383	22.3045	-130.611	82.1979	12.7398	
111	0.925	-114.425	50.8878	20.3553	-100.369	34.915	2.65911	-86.2031	30.4705	-20.4009	-76.4436	26.4029	-41.477	-104.216	83.0662	-46.1356	-98.5678	86.9088	-69.2284	-93.0891	90.5115	-95.9643	-125.203	90.7445	-57.7865	-125.783	91.3941	-83.5157	-122.421	89.7744	-115.354	-151.724	86.3589	-59.117	-152.051	88.0679	-83.6609	-149.594	86.2739	-109.916	-176.594	79.6102	-48.4323	-179.594	82.2038	-69.5232	-185.774	93.4867	-93.9403	-157.951	87.0465	-10.5002	-164.425	83.9304	22.1149	-133.909	82.2404	12.9289	
112	0.933333	-112.255	51.2288	23.0232	-97.2956	36.2056	1.18844	-84.9667	31.4787	-19.9689	-74.1068	26.3855	-41.7303	-103.867	84.477	-44.3694	-94.1668	88.7156	-70.8545	-91.8566	91.3198	-98.6488	-131.214	92.2131	-54.5446	-123.284	94.45	-81.7273	-122.224	88.9084	-112.013	-150.804	89.494	-59.0593	-150.858	90.4724	-83.4833	-147.198	84.7052	-110.29	-174.852	81.3087	-52.6827	-176.639	81.5934	-70.1912	-182.811	88.563	-96.5549	-160.874	87.2233	-6.31823	-163.901	84.8237	20.2545	-131.702	84.5763	11.2147	
113	0.941667	-110.767	52.5503	20.467	-97.7783	37.7632	4.56106	-82.5076	31.1675	-18.4323	-73.8961	27.3908	-42.0575	-105.33	85.1716	-43.0913	-96.1373	90.748	-72.106	-92.23	89.8888	-98.6427	-131.748	95.9667	-57.701	-124.729	96.8814	-82.1271	-126.125	82.9327	-116.696	-150.122	92.1516	-57.7424	-149.367	91.3568	-82.8515	-148.28	79.9449	-113.531	-176.115	80.1481	-49.3842	-181.049	80.8023	-75.2858	-185.299	81.1294	-101.022	-156.645	88.455	-7.95649	-167.734	86.2135	21.8377	-131.563	83.5483	14.1106	
114	0.95	-115.761	54.1185	25.0438	-97.3541	39.4761	1.74208	-83.4747	33.8548	-19.916	-79.4683	29.079	-40.3743	-105.314	88.1753	-40.4848	-96.1255	91.7164	-69.2842	-96.7747	87.7118	-94.9385	-128.173	95.5835	-51.5506	-127.482	95.8326	-85.5856	-124.61	80.921	-109.011	-152.872	94.5631	-55.9312	-150.44	92.2881	-80.759	-146.497	75.2427	-106.818	-174.113	79.7356	-46.3414	-177.152	78.7703	-72.8826	-182.496	70.1463	-99.3942	-161.358	86.9154	-3.48441	-168.623	86.2651	19.7599	-135.104	85.9759	14.9869	
115	0.958333	-115.985	55.8419	22.9305	-99.7955	40.745	7.22601	-82.3986	34.1063	-18.1385	-81.283	31.3333	-40.9838	-105.924	89.4186	-37.513	-95.9311	93.9668	-68.7234	-93.9734	83.7475	-92.3602	-132.121	98.185	-51.2247	-129.976	95.1945	-84.9046	-126.033	73.0422	-103.925	-150.234	93.219	-49.7785	-148.07	90.46	-84.4854	-143.868	66.5727	-101.125	-175.875	82.9141	-48.928	-180.242	76.9113	-73.7999	-173.727	60.7454	-98.6911	-161.478	88.7199	-5.46863	-166.231	87.6973	22.6198	-130.472	85.155	14.7762	
116	0.966667	-116.331	56.1663	26.4267	-97.0429	41.8881	3.30118	-84.2603	34.9682	-15.638	-88.3075	33.0951	-43.4357	-108.656	89.5549	-37.6334	-100.836	95.2438	-65.8569	-97.7341	76.9427	-92.0947	-132.787	97.8774	-49.1585	-126.746	94.5572	-83.0502	-130.345	63.6406	-98.9426	-152.905	94.2768	-49.8335	-147.91	88.9499	-82.5742	-146.56	60.4143	-95.9312	-173.678	83.4631	-48.3691	-179.499	77.5682	-73.8028	-172.806	54.5748	-94.5116	-158.2	91.5252	-4.18218	-169.493	90.2047	22.9279	-132.213	87.4025	17.4785	
117	0.975	-115.037	55.9876	26.0905	-94.5281	41.2382	3.99388	-86.2764	36.0727	-16.7605	-91.469	33.5334	-42.9349	-110.156	92.7999	-40.3733	-99.8636	93.4016	-68.9697	-101.841	70.5872	-90.7346	-133.436	98.0701	-49.8784	-131.948	92.866	-82.112	-133.172	60.1122	-93.6066	-150.05	94.4821	-51.1628	-148.331	89.9762	-79.4794	-146.009	55.6876	-89.5048	-176.927	83.3434	-45.2746	-177.149	75.7761	-74.7053	-166.382	50.2876	-90.396	-159.995	91.5319	-6.5628	-165.96	87.4632	26.738	-135.716	88.0986	13.7123	
118	0.983333	-117.297	57.3523	22.8103	-97.0372	42.3465	2.18359	-89.433	37.3191	-20.5368	-90.8873	31.8024	-46.1492	-108.554	92.7774	-39.4437	-101.011	92.1199	-70.7059	-104.697	68.507	-88.8355	-131.441	97.1104	-50.6582	-128.306	91.3741	-81.9075	-131.518	55.214	-90.861	-154.113	96.5723	-54.7233	-151.816	87.8821	-81.8263	-146.431	51.8322	-88.0733	-176.435	83.9435	-45.928	-177.612	77.5273	-74.0464	-164.235	50.6971	-87.7243	-163.525	92.2936	-3.97285	-169.159	88.8979	25.5982	-133.355	86.5649	17.4642	
119	0.991667	-117.162	57.3599	22.3054	-95.4376	42.0129	3.66534	-86.0388	35.596	-20.7632	-93.3682	31.2932	-45.8727	-108.3	89.5927	-37.5377	-101.085	92.0187	-68.5451	-103.826	65.7234	-89.5835	-133.243	97.8506	-52.8392	-129.426	87.9431	-85.6564	-130.126	52.3257	-93.9923	-152.565	95.9623	-53.3152	-147.666	86.9469	-82.4424	-146.861	55.4764	-91.4896	-175.171	84.1895	-47.1673	-177.398	76.4156	-75.0541	-163.847	51.0726	-88.1587	-162.206	93.2004	-7.69414	-169.956	89.4722	22.2728	-136.627	88.531	16.5401	
120	1	-114.663	56.1013	25.8199	-100.571	40.785	7.11335	-88.7403	33.0021	-17.9055	-89.9185	28.677	-39.7284	-108.769	90.1731	-41.5036	-102.153	89.9622	-68.4453	-100.225	69.294	-91.9651	-133.602	94.6946	-50.0452	-127.722	89.5021	-84.3647	-129.935	60.8207	-99.8089	-151.007	91.9431	-49.2939	-149.642	88.888	-80.6402	-147.414	57.045	-98.7451	-173.534	83.177	-49.1101	-175.394	76.7076	-76.7663	-172.624	57.9478	-93.5003	-163.333	90.8646	-3.87724	-169.623	88.1288	23.1529	-131.08	86.7384	12.9388	
121	1.00833	-113.057	53.7156	24.6841	-99.9441	37.0388	8.41272	-86.4494	29.999	-15.9743	-85.1713	24.4368	-44.0924	-109.619	86.3586	-43.0069	-100.941	87.575	-69.1482	-100.244	70.208	-97.5692	-131.48	94.5022	-54.5852	-124.99	93.1323	-81.1222	-129.19	71.7847	-108.108	-155.583	90.0913	-52.3665	-154.568	88.5068	-83.2471	-150.462	66.707	-105.983	-177.599	79.907	-46.3186	-182.645	76.616	-73.5544	-181.651	61.3664	-97.0515	-160.077	88.3398	-7.62484	-169.169	86.9372	24.3472	-132.709	86.1966	14.5583	
122	1.01667	-117.606	52.6418	24.4802	-99.727	36.0878	5.31953	-83.0049	25.5791	-17.288	-80.3073	20.5288	-40.8057	-106.409	84.1069	-45.4002	-97.9355	84.7751	-67.6315	-91.7142	78.8495	-93.7742	-131.383	92.478	-53.6501	-125.194	94.0931	-82.2431	-122.142	83.5246	-113.507	-155.144	88.354	-56.0926	-154.828	89.0622	-84.3873	-152.953	77.6304	-109.345	-179.866	77.2653	-52.3298	-183.789	73.2152	-72.1823	-184.448	65.5767	-98.1085	-162.283	87.3333	-10.2335	-167.91	87.7143	22.8915	-131.076	83.3294	13.7321	
123	1.025	-111.794	51.9689	21.9079	-97.1021	34.2053	3.01336	-84.7429	25.0113	-17.453	-76.0311	15.9578	-35.287	-104.006	80.2892	-43.6509	-95.8436	84.0022	-71.0846	-87.137	83.1522	-96.5871	-129.907	89.9215	-54.9798	-128.533	94.515	-82.6212	-121.431	95.2072	-110.802	-152.825	83.5276	-54.1483	-155.484	86.5284	-83.7084	-152.592	83.7006	-111.73	-178.336	71.4141	-49.2792	-183.845	67.2614	-73.1242	-194.259	66.7774	-93.7761	-163.355	85.1748	-6.54164	-165.057	85.3899	19.7704	-135.457	83.9257	13.4793	
